<svg xmlns="http://www.w3.org/2000/svg" width="160" height="50" viewBox="0 0 160 50">
  <defs>
    <style>
      .cls-1 {
        fill: #2c25ff;
        fill-rule: evenodd;
      }
    </style>
  </defs>
  <path id="hivedive" class="cls-1" d="M28.147,38V26.435c0-5.279-3.438-8.2-8.022-8.2a6.094,6.094,0,0,0-5.383,2.57H14.672V12.3H11.06V38h3.612V27.581c0-3.751,1.91-6.043,5.07-6.043,3.2,0,4.793,1.875,4.793,6.008V38h3.612ZM36.3,16.538V12.3H32.692v4.237H36.3ZM36.3,38V18.76H32.692V38H36.3Zm12.952,0,7.571-19.24H52.972L48.04,32.513H47.971L42.935,18.76H39.08L46.721,38h2.535ZM61.546,27.165a6.247,6.247,0,0,1,12.433,0H61.546Zm15.941,2.778a10.913,10.913,0,0,0,.1-1.806,9.8,9.8,0,0,0-9.967-9.9c-5.105,0-9.689,4.237-9.689,10.314a10.086,10.086,0,0,0,9.794,9.932,9.859,9.859,0,0,0,9.238-6.529H73.354a6.2,6.2,0,0,1-5.487,3.23,6.607,6.607,0,0,1-6.321-5.244H77.487ZM97.07,28.554a6.641,6.641,0,1,1-6.7-7.015C94.43,21.539,97.07,24.629,97.07,28.554ZM100.4,38V12.3H96.792v8.821H96.722a8.339,8.339,0,0,0-6.633-2.883c-5.73,0-9.9,4.48-9.9,10.349a9.787,9.787,0,0,0,10,9.9A8.181,8.181,0,0,0,97,35.256H97.07V38H100.4Zm8.26-21.462V12.3h-3.612v4.237h3.612Zm0,21.463V18.76h-3.612V38h3.612Zm12.952,0,7.571-19.24h-3.855L120.4,32.513h-0.07L115.3,18.76h-3.855L119.081,38h2.535Zm12.291-10.835a6.247,6.247,0,0,1,12.433,0H133.907Zm15.94,2.778a10.831,10.831,0,0,0,.1-1.806,9.8,9.8,0,0,0-9.968-9.9c-5.105,0-9.689,4.237-9.689,10.314a10.086,10.086,0,0,0,9.794,9.932,9.858,9.858,0,0,0,9.237-6.529h-3.611a6.2,6.2,0,0,1-5.488,3.23,6.606,6.606,0,0,1-6.32-5.244h15.94Z"/>
</svg>
